<?xml version="1.0" encoding="UTF-8" standalone="no"?>
<!DOCTYPE svg PUBLIC "-//W3C//DTD SVG 1.1//EN"
 "http://www.w3.org/Graphics/SVG/1.1/DTD/svg11.dtd">
<!-- Generated by graphviz version 2.38.0 (20140413.2041)
 -->
<!-- Title: g Pages: 1 -->
<svg width="529pt" height="260pt"
 viewBox="0.00 0.00 528.93 260.00" xmlns="http://www.w3.org/2000/svg" xmlns:xlink="http://www.w3.org/1999/xlink">
<g id="graph0" class="graph" transform="scale(1 1) rotate(0) translate(4 256)">
<title>g</title>
<polygon fill="white" stroke="none" points="-4,4 -4,-256 524.935,-256 524.935,4 -4,4"/>
<!-- Attack -->
<g id="node1" class="node"><title>Attack</title>
<ellipse fill="none" stroke="black" cx="162.596" cy="-234" rx="42.4939" ry="18"/>
<text text-anchor="middle" x="162.596" y="-230.3" font-family="Times,serif" font-size="14.00">Attack</text>
</g>
<!-- Lob -->
<g id="node2" class="node"><title>Lob</title>
<ellipse fill="none" stroke="black" cx="41.5963" cy="-162" rx="28.6953" ry="18"/>
<text text-anchor="middle" x="41.5963" y="-158.3" font-family="Times,serif" font-size="14.00">Lob</text>
</g>
<!-- Attack&#45;&gt;Lob -->
<g id="edge1" class="edge"><title>Attack&#45;&gt;Lob</title>
<path fill="none" stroke="black" d="M138.401,-219.003C118.936,-207.742 91.5154,-191.879 70.8246,-179.909"/>
<polygon fill="black" stroke="black" points="72.5373,-176.856 62.1287,-174.878 69.032,-182.915 72.5373,-176.856"/>
</g>
<!-- Short -->
<g id="node3" class="node"><title>Short</title>
<ellipse fill="none" stroke="black" cx="162.596" cy="-162" rx="36.2938" ry="18"/>
<text text-anchor="middle" x="162.596" y="-158.3" font-family="Times,serif" font-size="14.00">Short</text>
</g>
<!-- Attack&#45;&gt;Short -->
<g id="edge2" class="edge"><title>Attack&#45;&gt;Short</title>
<path fill="none" stroke="black" d="M162.596,-215.697C162.596,-207.983 162.596,-198.712 162.596,-190.112"/>
<polygon fill="black" stroke="black" points="166.096,-190.104 162.596,-180.104 159.096,-190.104 166.096,-190.104"/>
</g>
<!-- Flick -->
<g id="node4" class="node"><title>Flick</title>
<ellipse fill="none" stroke="black" cx="251.596" cy="-162" rx="34.394" ry="18"/>
<text text-anchor="middle" x="251.596" y="-158.3" font-family="Times,serif" font-size="14.00">Flick</text>
</g>
<!-- Attack&#45;&gt;Flick -->
<g id="edge3" class="edge"><title>Attack&#45;&gt;Flick</title>
<path fill="none" stroke="black" d="M181.908,-217.811C194.524,-207.888 211.169,-194.797 225.027,-183.897"/>
<polygon fill="black" stroke="black" points="227.538,-186.375 233.235,-177.442 223.211,-180.873 227.538,-186.375"/>
</g>
<!-- Topspin -->
<g id="node5" class="node"><title>Topspin</title>
<ellipse fill="none" stroke="black" cx="350.596" cy="-162" rx="46.5926" ry="18"/>
<text text-anchor="middle" x="350.596" y="-158.3" font-family="Times,serif" font-size="14.00">Topspin</text>
</g>
<!-- Attack&#45;&gt;Topspin -->
<g id="edge4" class="edge"><title>Attack&#45;&gt;Topspin</title>
<path fill="none" stroke="black" d="M202.956,-217.972C237.355,-205.164 286.16,-186.992 318.092,-175.103"/>
<polygon fill="black" stroke="black" points="201.37,-214.828 193.22,-221.597 203.813,-221.388 201.37,-214.828"/>
</g>
<!-- Push -->
<g id="node7" class="node"><title>Push</title>
<ellipse fill="none" stroke="black" cx="161.596" cy="-90" rx="33.5952" ry="18"/>
<text text-anchor="middle" x="161.596" y="-86.3" font-family="Times,serif" font-size="14.00">Push</text>
</g>
<!-- Attack&#45;&gt;Push -->
<g id="edge6" class="edge"><title>Attack&#45;&gt;Push</title>
<path fill="none" stroke="black" d="M136.991,-210.043C129.225,-201.473 121.674,-191.104 117.596,-180 112.08,-164.981 112.163,-159.049 117.596,-144 122.956,-129.152 134.487,-115.525 144.4,-105.807"/>
<polygon fill="black" stroke="black" points="134.621,-212.627 144.091,-217.377 139.65,-207.758 134.621,-212.627"/>
</g>
<!-- Smash -->
<g id="node12" class="node"><title>Smash</title>
<ellipse fill="none" stroke="black" cx="41.5963" cy="-90" rx="41.6928" ry="18"/>
<text text-anchor="middle" x="41.5963" y="-86.3" font-family="Times,serif" font-size="14.00">Smash</text>
</g>
<!-- Lob&#45;&gt;Smash -->
<g id="edge13" class="edge"><title>Lob&#45;&gt;Smash</title>
<path fill="none" stroke="black" d="M41.5963,-143.697C41.5963,-135.983 41.5963,-126.712 41.5963,-118.112"/>
<polygon fill="black" stroke="black" points="45.0964,-118.104 41.5963,-108.104 38.0964,-118.104 45.0964,-118.104"/>
</g>
<!-- Pendulum -->
<g id="node6" class="node"><title>Pendulum</title>
<ellipse fill="none" stroke="black" cx="270.596" cy="-90" rx="57.3905" ry="18"/>
<text text-anchor="middle" x="270.596" y="-86.3" font-family="Times,serif" font-size="14.00">Pendulum</text>
</g>
<!-- Flick&#45;&gt;Pendulum -->
<g id="edge5" class="edge"><title>Flick&#45;&gt;Pendulum</title>
<path fill="none" stroke="black" d="M256.196,-144.055C258.311,-136.261 260.873,-126.822 263.246,-118.079"/>
<polygon fill="black" stroke="black" points="266.666,-118.843 265.907,-108.275 259.91,-117.009 266.666,-118.843"/>
</g>
<!-- Flick&#45;&gt;Push -->
<g id="edge9" class="edge"><title>Flick&#45;&gt;Push</title>
<path fill="none" stroke="black" d="M224.829,-140.181C210.347,-128.917 192.833,-115.295 179.913,-105.246"/>
<polygon fill="black" stroke="black" points="222.906,-143.119 232.948,-146.496 227.204,-137.594 222.906,-143.119"/>
</g>
<!-- Reverse -->
<g id="node9" class="node"><title>Reverse</title>
<ellipse fill="none" stroke="black" cx="431.596" cy="-90" rx="48.1917" ry="18"/>
<text text-anchor="middle" x="431.596" y="-86.3" font-family="Times,serif" font-size="14.00">Reverse</text>
</g>
<!-- Flick&#45;&gt;Reverse -->
<g id="edge11" class="edge"><title>Flick&#45;&gt;Reverse</title>
<path fill="none" stroke="black" d="M278.422,-150.359C283.777,-148.245 289.363,-146.047 294.596,-144 326.432,-131.549 362.488,-117.607 389.617,-107.148"/>
<polygon fill="black" stroke="black" points="391.111,-110.324 399.184,-103.462 388.594,-103.792 391.111,-110.324"/>
</g>
<!-- Twist -->
<g id="node11" class="node"><title>Twist</title>
<ellipse fill="none" stroke="black" cx="353.596" cy="-18" rx="35.9954" ry="18"/>
<text text-anchor="middle" x="353.596" y="-14.3" font-family="Times,serif" font-size="14.00">Twist</text>
</g>
<!-- Push&#45;&gt;Twist -->
<g id="edge12" class="edge"><title>Push&#45;&gt;Twist</title>
<path fill="none" stroke="black" d="M187.919,-78.4259C193.416,-76.2647 199.185,-74.0313 204.596,-72 246.237,-56.3681 294.844,-39.2964 324.925,-28.8669"/>
</g>
<!-- Others -->
<g id="node8" class="node"><title>Others</title>
<ellipse fill="none" stroke="black" cx="457.596" cy="-162" rx="42.4939" ry="18"/>
<text text-anchor="middle" x="457.596" y="-158.3" font-family="Times,serif" font-size="14.00">Others</text>
</g>
<!-- Others&#45;&gt;Reverse -->
<g id="edge7" class="edge"><title>Others&#45;&gt;Reverse</title>
<path fill="none" stroke="black" d="M447.781,-134.574C444.512,-125.773 440.956,-116.2 438.013,-108.275"/>
<polygon fill="black" stroke="black" points="444.54,-135.899 451.302,-144.055 451.101,-133.462 444.54,-135.899"/>
</g>
<!-- Block -->
<g id="node10" class="node"><title>Block</title>
<ellipse fill="none" stroke="black" cx="438.596" cy="-234" rx="37.0935" ry="18"/>
<text text-anchor="middle" x="438.596" y="-230.3" font-family="Times,serif" font-size="14.00">Block</text>
</g>
<!-- Block&#45;&gt;Topspin -->
<g id="edge8" class="edge"><title>Block&#45;&gt;Topspin</title>
<path fill="none" stroke="black" d="M419.934,-218.155C405.303,-206.516 385.001,-190.368 370.147,-178.552"/>
</g>
<!-- Block&#45;&gt;Twist -->
<g id="edge10" class="edge"><title>Block&#45;&gt;Twist</title>
<path fill="none" stroke="black" d="M464.588,-221.021C480.47,-212.158 499.435,-198.427 508.596,-180 530.328,-136.288 521.289,-108.252 488.596,-72 462.375,-42.9239 418.199,-29.6157 387.555,-23.6479"/>
</g>
</g>
</svg>
